<?xml version="1.0" standalone="no"?>
<svg
  width="600"
  height="600"
  viewBox="0 0 600 600"
  xmlns="http://www.w3.org/2000/svg"
>
  <g transform="translate(300,300)">
    <path d="M102.1,-151.8C131.2,-119.3,153.1,-88.1,166.9,-52.6C180.7,-17.1,186.4,22.7,184.8,70C183.1,117.4,174.1,172.4,142.1,202C110.1,231.6,55.1,235.8,2.8,231.9C-49.4,228,-98.7,215.9,-143.1,190.3C-187.5,164.8,-226.9,125.6,-238.4,79.9C-249.8,34.2,-233.3,-18.1,-211.9,-64.1C-190.4,-110.1,-164,-149.7,-127.8,-179.9C-91.7,-210.2,-45.8,-231.1,-4.7,-224.6C36.4,-218.2,72.9,-184.3,102.1,-151.8Z" fill="#f7f7f7" />
  </g>
</svg>
    