<?xml version="1.0" encoding="UTF-8"?>
<svg width="153px" height="154px" viewBox="0 0 153 154" version="1.1" xmlns="http://www.w3.org/2000/svg" xmlns:xlink="http://www.w3.org/1999/xlink">
    <!-- Generator: Sketch 53 (72520) - https://sketchapp.com -->
    <title>Group 2</title>
    <desc>Created with Sketch.</desc>
    <g id="Page-1" stroke="none" stroke-width="1" fill="none" fill-rule="evenodd">
        <g id="Artboard" transform="translate(-1635.000000, -268.000000)" fill-rule="nonzero">
            <g id="Logo-2" transform="translate(1265.000000, 149.000000)">
                <g id="g10" transform="translate(531.000000, 704.500000) scale(-1, 1) rotate(-180.000000) translate(-531.000000, -704.500000) ">
                    <g id="g12">
                        <g id="Group-2" transform="translate(370.031197, 1136.889320)">
                            <path d="M152.45013,76.2239981 C152.45013,34.1266658 118.323464,-2.84217094e-14 76.2247981,-2.84217094e-14 C34.1274658,-2.84217094e-14 -1.13686838e-13,34.1266658 -1.13686838e-13,76.2239981 C-1.13686838e-13,118.322664 34.1274658,152.44933 76.2247981,152.44933 C118.323464,152.44933 152.45013,118.322664 152.45013,76.2239981" id="path202" fill="#06495C"></path>
                            <path d="M94.1714643,2.14399995 C87.9701311,8.33733312 81.7621313,14.5226663 75.5621314,20.7173328 C65.367465,30.9079992 55.0034653,40.9386656 45.0767989,51.385332 C34.1887991,62.8453318 31.2141326,76.4613314 35.7154658,91.6186644 C36.2194658,93.3186643 36.2127991,94.501331 34.7701325,95.6159976 C33.9407992,96.2573309 33.1474658,97.0093309 32.5354659,97.8546642 C31.4927992,99.2933309 31.7127992,100.554664 33.4487992,101.327997 C33.7981325,101.482664 34.1781325,101.565331 34.5434658,101.687997 C38.144799,102.894664 40.2994657,103.617331 42.0234656,103.617331 C44.5847989,103.617331 46.1927988,102.018664 50.1821321,98.0373309 C51.5927987,96.6293309 52.9127987,95.133331 54.438132,93.5026643 C55.4967986,94.945331 56.2767986,96.0106643 57.3887986,97.5279976 C54.314132,100.509331 51.2021321,103.478664 48.1421321,106.502664 C45.3594655,109.251997 45.3861322,109.615997 48.1647988,112.523997 C55.9447986,120.663997 66.4367983,124.922664 77.0714647,124.922664 C83.8087979,124.922664 90.6061311,123.211997 96.7994642,119.69333 C97.6207976,119.226664 98.4447975,118.767997 99.5061308,118.171997 C99.3981308,119.02533 99.2034642,119.59733 99.2794642,120.12933 C99.4874642,121.547997 99.8101308,122.950664 100.087464,124.359997 C101.384797,123.766664 102.946131,123.455997 103.931464,122.531997 C107.784797,118.915997 111.456797,115.10933 115.19413,111.371997 C127.595463,98.9693309 140.000796,86.5706645 152.39813,74.1639981 C151.467463,39.1666657 126.96213,10.0613331 94.1714643,2.14399995" id="path204" fill="#053B4B"></path>
                            <path d="M104.859464,64.3586651 C105.720797,64.4413317 106.492797,63.9199984 106.799464,63.1546651 C106.870131,62.9786651 106.923464,62.7959984 106.940797,62.5999984 L107.448797,56.5133319 C113.043464,62.5306651 116.363464,70.2266649 116.887464,78.5373314 C117.444797,87.3946645 114.760797,95.9613309 109.303464,102.875997 C108.894131,103.393331 108.474131,103.903997 108.035464,104.402664 C107.331464,105.199997 107.408797,106.417331 108.207464,107.121331 C109.004797,107.823997 110.222131,107.746664 110.924797,106.949331 C117.91413,99.0199975 121.396797,88.8426644 120.731464,78.2946647 C120.160797,69.2226649 116.572797,60.8133318 110.538131,54.1906653 L115.25013,54.5839986 C116.311464,54.6839986 117.240797,53.8866653 117.33013,52.8266653 C117.419464,51.765332 116.631464,50.8346654 115.571464,50.7466654 L106.064797,49.9506654 L105.902131,49.9439988 C104.911464,49.9439988 104.068797,50.7039987 103.986131,51.709332 L103.102131,62.2773318 C103.011464,63.3386651 103.799464,64.2693317 104.859464,64.3586651 L104.859464,64.3586651 Z M34.1807991,73.5653315 C32.7621325,82.5426646 34.4301325,91.5306644 38.876799,99.3106642 L34.3621325,97.8986642 C33.3474658,97.5799976 32.2661325,98.1466642 31.9487992,99.1626642 C31.6314659,100.177331 32.1967992,101.257331 33.2127992,101.575997 L42.3181323,104.423997 C43.3314656,104.741331 44.4127989,104.175997 44.7301322,103.159997 L47.8967988,93.0386643 C48.2154655,92.0239977 47.6487988,90.9439977 46.6327988,90.6253311 C46.4421322,90.5653311 46.2487988,90.5373311 46.0581322,90.5373311 C45.4274655,90.5373311 44.8367989,90.8546644 44.4794656,91.373331 C44.3714656,91.529331 44.2794656,91.6986644 44.2194656,91.889331 L42.3967989,97.7186642 C38.2501324,90.6253311 36.6861324,82.3893313 37.9874657,74.1666648 C39.372799,65.398665 43.8607989,57.6239986 50.6941321,52.065332 C51.2047987,51.649332 51.726132,51.2426654 52.2647987,50.8519987 C53.1247987,50.2266654 53.3154653,49.0226654 52.6887987,48.1613321 C52.3127987,47.6426655 51.7247987,47.3679988 51.1301321,47.3679988 C50.7367987,47.3679988 50.3407987,47.4879988 49.9981321,47.7359988 C41.448799,53.9519987 35.8314658,63.1239984 34.1807991,73.5653315 Z M46.7221322,108.277331 C45.9074655,108.961331 45.8021322,110.175997 46.4861322,110.990664 C53.2794653,119.086664 62.8221318,124.05333 73.3514648,124.971997 C82.7021313,125.791997 91.838131,123.322664 99.4407975,117.999997 L98.7941309,122.654664 C98.6487975,123.707997 99.3847975,124.679997 100.438131,124.826664 C101.495464,124.967997 102.464797,124.235997 102.610131,123.182664 L104.008797,113.089331 C104.080797,112.570664 103.939464,112.045331 103.614131,111.633331 C103.291464,111.221331 102.814131,110.959997 102.292797,110.907997 L92.5594644,109.935997 L92.366131,109.925331 C91.3887977,109.925331 90.5527977,110.666664 90.4514644,111.659997 C90.3714644,112.465331 90.7994644,113.199997 91.474131,113.554664 C91.686131,113.666664 91.9234644,113.742664 92.1767977,113.767997 L97.9261309,114.342664 C90.9327977,119.490664 82.4127979,121.898664 73.6874648,121.135997 C64.843465,120.362664 56.7754652,116.42533 50.7567987,109.997331 C50.3061321,109.515997 49.8634654,109.023997 49.4367988,108.514664 C49.0541321,108.059997 48.5087988,107.826664 47.9594655,107.826664 C47.5221321,107.826664 47.0834655,107.973331 46.7221322,108.277331 L46.7221322,108.277331 Z M69.0847983,45.3026655 L69.0847983,47.8266655 L86.0634645,47.8266655 L86.0634645,45.3026655 L69.0847983,45.3026655 Z M86.0634645,38.9253324 L69.0847983,38.9253324 L69.0847983,41.4493323 L86.0634645,41.4493323 L86.0634645,38.9253324 Z M55.9047986,84.6613312 C57.3647986,101.921331 76.5354648,101.918664 77.3861314,101.927997 C78.204798,101.949331 97.3714642,101.918664 98.8301309,84.6613312 C99.6287975,75.1999981 96.9207976,71.7999982 93.4914643,67.4933316 C90.7607977,64.0639984 87.6887978,60.2053318 85.9981312,52.941332 L68.7341316,52.941332 C67.0447983,60.2066652 63.9727984,64.0639984 61.2421318,67.4933316 C57.8141319,71.7999982 55.106132,75.2013315 55.9047986,84.6613312 Z M72.5061315,32.9319992 L70.9447982,35.0733325 L84.2034646,35.0733325 L82.6421313,32.9319992 L72.5061315,32.9319992 Z M102.666131,84.9853312 C100.907464,105.823997 77.5941314,105.791997 77.3901314,105.779997 C77.1381314,105.766664 53.8287987,105.827997 52.066132,84.9853312 C51.1381321,73.9999981 54.582132,69.6733316 58.2287985,65.094665 C61.0007985,61.6106651 63.8687984,58.0106652 65.2821317,50.6519987 L65.3527984,50.4039987 C65.279465,50.1999987 65.2327984,49.9826654 65.2327984,49.7519988 L65.2327984,43.3759989 L65.2327984,36.9999991 L65.2421317,36.9066657 L65.2567984,36.7653324 L65.3327984,36.4106658 L65.367465,36.3039991 C65.423465,36.1586658 65.4967984,36.0199991 65.5901317,35.8879991 L65.6021317,35.8653324 L69.9701316,29.8719993 C70.3327982,29.3746659 70.9114649,29.0799993 71.5274649,29.0799993 L83.6207979,29.0799993 C84.2367979,29.0799993 84.8154645,29.3746659 85.1781312,29.8719993 L89.5474644,35.8653324 L89.5581311,35.8879991 C89.6514644,36.0199991 89.7247978,36.1586658 89.7807978,36.3039991 L89.8154644,36.4106658 L89.8914644,36.7653324 L89.9061311,36.9066657 L89.9154644,36.9999991 L89.9154644,43.3759989 L89.9154644,49.7519988 C89.9154644,50.1959987 89.7607978,50.5999987 89.5074644,50.9253321 C90.9407977,58.0959985 93.7674643,61.6559985 96.5047976,65.0933317 C100.151464,69.6733316 103.595464,73.9999981 102.666131,84.9853312 L102.666131,84.9853312 Z" id="path206" fill="#FFFFFF"></path>
                        </g>
                    </g>
                </g>
            </g>
        </g>
    </g>
</svg>