<?xml version="1.0" encoding="UTF-8"?>
<svg width="167px" height="167px" viewBox="0 0 167 167" version="1.1" xmlns="http://www.w3.org/2000/svg" xmlns:xlink="http://www.w3.org/1999/xlink">
    <!-- Generator: Sketch 53 (72520) - https://sketchapp.com -->
    <title>Group 5</title>
    <desc>Created with Sketch.</desc>
    <g id="Page-1" stroke="none" stroke-width="1" fill="none" fill-rule="evenodd">
        <g id="Artboard" transform="translate(-953.000000, -261.000000)" fill-rule="nonzero">
            <g id="logo-1" transform="translate(407.000000, 168.000000)">
                <g id="g10" transform="translate(400.000000, 400.000000) scale(-1, 1) rotate(-180.000000) translate(-400.000000, -400.000000) translate(0.000000, -0.000000)">
                    <g id="g12">
                        <g id="Group-5" transform="translate(546.737320, 540.861320)">
                            <path d="M82.7693313,-4.26325641e-13 C37.0573324,-4.26325641e-13 -4.97379915e-13,37.0573324 -4.97379915e-13,82.7666646 C-4.97379915e-13,128.478663 37.0573324,165.535996 82.7693313,165.535996 C128.478663,165.535996 165.535996,128.478663 165.535996,82.7666646 C165.535996,37.0573324 128.478663,-4.26325641e-13 82.7693313,-4.26325641e-13 Z" id="path318" fill="#06495C"></path>
                            <path d="M82.6733313,9.28442478e-14 C82.6679979,9.28442478e-14 82.6626646,9.28442478e-14 82.6573313,9.28442478e-14 C78.203998,0.0066666665 73.8359982,0.375999991 69.5733316,1.05866664 C59.3293319,11.3253331 49.0733321,21.5799995 38.8426657,31.8599992 C36.8053324,33.9066658 35.6999991,36.8826657 34.8693325,38.255999 C36.1946658,49.6919988 37.3119991,59.3666652 38.439999,69.0413316 C40.087999,83.1826646 41.747999,97.3239976 43.3919989,111.466664 C43.9546656,116.303997 44.3799989,121.159997 45.0506655,125.98133 C45.7746655,131.203997 48.5959988,133.766663 53.2466653,133.766663 C53.981332,133.766663 54.7626653,133.702663 55.5866653,133.575997 C59.9026652,132.907997 64.2479984,132.40533 68.594665,131.983997 C68.6453316,131.978663 68.6946649,131.97733 68.7453316,131.97733 C69.5453316,131.97733 70.3986649,132.55733 71.2293316,132.831997 C75.4973314,134.243997 78.1706647,137.55733 81.255998,140.591996 C83.1773313,142.479996 85.7319979,143.367996 88.3746645,143.367996 C91.5226644,143.367996 94.797331,142.107996 97.2759976,139.775997 C100.373331,136.859997 103.537331,133.963997 106.258664,130.71333 C108.835997,127.631997 112.037331,126.54933 115.746664,126.51333 C121.52133,126.458664 126.070664,124.415997 130.27333,120.183997 C141.98933,108.381331 153.739996,96.6146643 165.482663,84.8373312 C165.499996,84.1466646 165.535996,83.4613312 165.535996,82.7666646 C165.535996,37.0573324 128.478663,-2.84217094e-14 82.7693313,-2.84217094e-14 C82.7373313,9.28442478e-14 82.7053313,9.28442478e-14 82.6733313,9.28442478e-14 Z" id="path322" fill="#053B4B"></path>
                            <path d="M103.949331,126.64533 L121.022664,124.72933 L121.015997,124.730664 C123.13733,124.48533 124.699997,122.675997 124.698664,120.59733 C124.698664,120.43733 124.68933,120.271997 124.670664,120.10133 L124.670664,120.106664 L114.474664,32.9359992 C114.22933,30.8159992 112.421331,29.2533326 110.343997,29.2533326 C110.181331,29.2533326 110.017331,29.2626659 109.851997,29.2826659 L41.751999,37.2466657 C39.6306657,37.4919991 38.067999,39.299999 38.067999,41.3773323 C38.067999,41.5413323 38.0773324,41.7026656 38.095999,41.8626656 L38.0973324,41.8693323 L48.2933321,129.04133 C48.5386655,131.16133 50.3466654,132.723997 52.4239987,132.723997 C52.5839987,132.723997 52.7479987,132.714663 52.9159987,132.694663 L52.9079987,132.695997 L71.1519982,130.482663 C72.0653315,130.371997 72.8959982,131.022663 73.0066648,131.935997 C73.1173315,132.84933 72.4666649,133.679997 71.5533315,133.790663 L53.309332,136.00533 L53.3026653,136.00533 C53.0066653,136.039997 52.713332,136.05733 52.4239987,136.05733 C48.6653321,136.055997 45.4333322,133.246663 44.9826655,129.427997 L34.7866658,42.2573323 L34.7879991,42.2639989 C34.7506658,41.9626656 34.7346658,41.6666656 34.7346658,41.3773323 C34.7359991,37.6173324 37.5466657,34.3866658 41.363999,33.9359992 L109.465331,25.9719994 C109.758664,25.9373327 110.051997,25.9199994 110.343997,25.9199994 C114.102664,25.9213327 117.335997,28.7306659 117.78533,32.5493325 L127.98133,119.719997 L127.982663,119.72533 C128.014663,120.014664 128.031997,120.30533 128.031997,120.59733 C128.031997,124.35733 125.222664,127.590663 121.402664,128.04133 L121.394664,128.04133 L104.321331,129.958663 C103.405331,130.06133 102.581331,129.402663 102.478664,128.487997 C102.375997,127.57333 103.034664,126.747997 103.949331,126.64533" id="path324" fill="#FFFFFF"></path>
                            <path d="M112.974664,120.183997 L116.91733,119.779997 L107.350664,37.9999991 L47.4039988,45.0106655 L56.9693319,126.798663 L61.1973318,126.259997 C62.1106651,126.143997 62.9453318,126.78933 63.0613318,127.702663 C63.1786651,128.615997 62.5319984,129.450663 61.6186651,129.566663 L55.7199986,130.31733 C55.2786653,130.37333 54.833332,130.250663 54.4826653,129.97733 C54.1319986,129.702663 53.905332,129.299997 53.8546653,128.85733 L43.8999989,43.7426656 C43.7933322,42.8293323 44.4479989,42.0013323 45.3613322,41.8946656 L108.619997,34.4946658 C109.055997,34.4439991 109.502664,34.5706658 109.846664,34.8426658 C110.190664,35.1146658 110.417331,35.5213324 110.469331,35.9573324 L120.423997,121.071997 C120.475997,121.51333 120.347997,121.959997 120.06933,122.307997 C119.790664,122.654664 119.382664,122.87733 118.939997,122.922664 L113.315997,123.499997 C112.399997,123.594664 111.581331,122.927997 111.486664,122.01333 C111.393331,121.09733 112.059997,120.278664 112.974664,120.183997" id="path326" fill="#FFFFFF"></path>
                            <path d="M112.510664,122.766664 L113.967997,123.57333 C113.630664,124.182664 113.219997,124.742664 112.741331,125.230664 C111.747997,126.235997 110.534664,126.90933 109.298664,127.383997 C108.058664,127.855997 106.785331,128.126663 105.611997,128.26533 L104.151997,128.435997 L103.957331,126.779997 L105.613331,126.587997 L105.793331,128.12933 L105.793331,128.131997 C105.815997,128.33333 105.827997,128.534663 105.827997,128.734663 C105.826664,131.331997 103.887997,133.562663 101.250664,133.874663 L98.4079975,134.206663 L98.2146642,132.551997 L99.8693308,132.35733 C99.9239975,132.823997 99.9506642,133.286663 99.9506642,133.743997 C99.9493308,139.65333 95.5293309,144.742663 89.5253311,145.447996 C89.0613311,145.502663 88.5986645,145.52933 88.1413311,145.52933 C82.2333313,145.527996 77.1439981,141.106663 76.4386648,135.098663 L78.0946647,134.90533 L78.287998,136.559997 L75.4453314,136.891997 C75.2426648,136.915997 75.0399981,136.927997 74.8386648,136.927997 C72.2413315,136.926663 70.0106649,134.987997 69.6999983,132.34933 L69.6999983,132.350663 L69.5186649,130.80933 L71.1746649,130.614663 L71.3679982,132.270663 L69.7466649,132.459997 C69.2373316,132.519997 68.7239983,132.54933 68.2093316,132.54933 C66.7813317,132.547997 65.3519984,132.326663 64.0333317,131.86933 C62.7173318,131.410663 61.4959985,130.718663 60.5546652,129.69333 C59.3213319,128.34533 58.7039985,126.67733 58.7053319,125.058664 C58.7039985,123.691997 59.1453319,122.339997 60.0399985,121.266664 C60.9279985,120.190664 62.2826651,119.44133 63.8599984,119.263997 L108.293331,114.067997 C108.525331,114.039997 108.758664,114.026664 108.989331,114.026664 C111.199997,114.02933 113.241331,115.246664 114.302664,117.20933 L114.302664,117.210664 C114.766664,118.07333 114.955997,119.00933 114.955997,119.907997 C114.951997,121.223997 114.56933,122.478664 113.967997,123.571997 L113.967997,123.57333 L112.510664,122.766664 L111.051997,121.959997 C111.413331,121.311997 111.625331,120.546664 111.622664,119.907997 C111.621331,119.467997 111.531997,119.094664 111.367997,118.790664 L111.369331,118.791997 C110.891997,117.906664 109.963997,117.358664 108.989331,117.359997 L108.679997,117.378664 L64.2466651,122.574664 C63.4426651,122.67733 62.9573318,122.983997 62.5986651,123.40133 C62.2479984,123.822664 62.0386651,124.399997 62.0386651,125.058664 C62.0386651,125.835997 62.3319984,126.695997 63.0146651,127.443997 C63.4626651,127.938663 64.2026651,128.402663 65.1253317,128.72133 C66.0453317,129.04133 67.1333317,129.21733 68.2093316,129.215997 C68.5973316,129.215997 68.9826649,129.19333 69.3599983,129.14933 L70.9799982,128.959997 C71.8946649,128.85333 72.7213315,129.506663 72.8293315,130.42133 L73.0106648,131.962663 L73.0106648,131.963997 C73.1159982,132.902663 73.9213315,133.594663 74.8386648,133.594663 L75.0586648,133.58133 L77.9013314,133.24933 C78.3426647,133.19733 78.7786647,133.32133 79.127998,133.59733 C79.4773313,133.874663 79.6986647,134.26933 79.7493313,134.711997 C80.2493313,139.022663 83.9146646,142.195996 88.1413311,142.195996 C88.4693311,142.195996 88.8026644,142.175996 89.1373311,142.13733 C93.4439977,141.635996 96.6173309,137.97333 96.6173309,133.743997 C96.6173309,133.41333 96.5986643,133.079997 96.5586643,132.74533 C96.4519976,131.830663 97.1066642,131.002663 98.0199975,130.895997 L100.862664,130.562663 C101.801331,130.45733 102.495997,129.650663 102.494664,128.734663 L102.481331,128.51333 L102.482664,128.514663 L102.302664,126.97333 C102.195997,126.058664 102.849331,125.231997 103.763997,125.12533 L105.225331,124.954664 C106.165331,124.84533 107.191997,124.619997 108.109331,124.26933 C109.027997,123.919997 109.825331,123.443997 110.365331,122.891997 C110.611997,122.64133 110.853331,122.318664 111.051997,121.958664 L111.051997,121.959997 L112.510664,122.766664" id="path328" fill="#FFFFFF"></path>
                            <path d="M84.2386646,100.554664 L104.390664,98.1453309 C105.303997,98.0359975 106.133331,98.6879975 106.242664,99.6026642 C106.351997,100.515997 105.699997,101.345331 104.785331,101.454664 L84.6346646,103.863997 C83.7213312,103.973331 82.8906646,103.321331 82.7826646,102.407997 C82.6733313,101.493331 83.3253313,100.663997 84.2386646,100.554664" id="path330" fill="#FFFFFF"></path>
                            <path d="M77.5493314,102.046664 L75.8933314,102.239997 C75.4866648,98.7319975 72.4999982,96.1453309 69.0573316,96.1466643 C68.7906649,96.1466643 68.5199983,96.1613309 68.246665,96.1933309 C64.7373317,96.6013309 62.1519984,99.5879975 62.1519984,103.029331 C62.1519984,103.298664 62.1679984,103.567997 62.1999984,103.837331 L62.1999984,103.841331 C62.6079984,107.350664 65.5933317,109.935997 69.0346649,109.934664 C69.3026649,109.934664 69.5733316,109.919997 69.8479983,109.887997 C73.3573315,109.479997 75.9413314,106.494664 75.9413314,103.051997 C75.9399981,102.785331 75.9253314,102.513331 75.8933314,102.235997 L75.8933314,102.239997 L77.5493314,102.046664 L79.2053314,101.855997 C79.2506647,102.255997 79.2733314,102.654664 79.2733314,103.051997 C79.2733314,108.174664 75.4413314,112.585331 70.2346649,113.198664 C69.8319983,113.245331 69.4319983,113.267997 69.0346649,113.267997 C63.9119984,113.267997 59.5013318,109.435997 58.8893319,104.229331 L58.8906652,104.233331 C58.8413319,103.826664 58.8186652,103.425331 58.8186652,103.029331 C58.8199985,97.9053309 62.6533318,93.4959977 67.858665,92.8826643 C68.2613316,92.8359977 68.6613316,92.813331 69.0573316,92.813331 C74.1813315,92.813331 78.5933314,96.6466643 79.203998,101.853331 L79.2053314,101.855997 L77.5493314,102.046664" id="path332" fill="#FFFFFF"></path>
                            <path d="M64.9893317,102.382664 L66.326665,100.223997 C66.566665,99.8346642 66.950665,99.5653308 67.398665,99.4706642 C67.846665,99.3759975 68.3053316,99.4679975 68.6839983,99.7253308 L72.8013315,102.542664 C73.5599982,103.061331 73.7546648,104.098664 73.2359982,104.858664 C72.7159982,105.618664 71.6786649,105.813331 70.9199982,105.293331 L68.2413316,103.461331 L67.822665,104.138664 C67.3373316,104.919997 66.310665,105.161331 65.5279984,104.677331 C64.7453317,104.191997 64.5039984,103.165331 64.9893317,102.382664" id="path334" fill="#FFFFFF"></path>
                            <path d="M81.4546646,76.7359981 L101.603997,74.3266648 C102.517331,74.2173315 103.346664,74.8693315 103.455997,75.7839981 C103.565331,76.6973314 102.913331,77.5279981 101.998664,77.6359981 L81.8493313,80.0466647 C80.935998,80.155998 80.1066647,79.5026647 79.9973313,78.5893314 C79.887998,77.6746647 80.539998,76.8453314 81.4546646,76.7359981" id="path336" fill="#FFFFFF"></path>
                            <path d="M74.8693315,79.131998 L73.2133315,79.3253314 C72.8066648,75.8159981 69.8199983,73.2306648 66.3773317,73.2319982 C66.1093317,73.2319982 65.838665,73.2466648 65.566665,73.2786648 C62.0559984,73.6866648 59.4719985,76.6733314 59.4719985,80.1146647 C59.4733318,80.383998 59.4879985,80.6533313 59.5199985,80.9226646 L59.5213318,80.9266646 C59.9266652,84.4359979 62.9133318,87.0213312 66.3559983,87.0199978 C66.622665,87.0199978 66.8933317,87.0053312 67.1679983,86.9733312 C70.6759982,86.5666645 73.2613315,83.5799979 73.2613315,80.1373313 C73.2613315,79.8706647 73.2453315,79.5986647 73.2133315,79.3213314 L73.2133315,79.3253314 L74.8693315,79.131998 L76.5253314,78.9413314 C76.5706648,79.339998 76.5946648,79.739998 76.5946648,80.1373313 C76.5933314,85.2599979 72.7613315,89.6719978 67.554665,90.2839977 C67.1519983,90.3306644 66.7519983,90.3533311 66.3559983,90.3533311 C61.2333318,90.3533311 56.8213319,86.5213312 56.2093319,81.3133313 L56.2106653,81.3186646 C56.1626653,80.911998 56.1386653,80.5106647 56.1399986,80.1146647 C56.1399986,74.9919981 59.9719985,70.5813316 65.1799984,69.9679983 C65.5813317,69.9213316 65.9813317,69.8986649 66.3773317,69.8986649 C71.5013315,69.8986649 75.9119981,73.7306648 76.5253314,78.9373314 L76.5253314,78.9413314 L74.8693315,79.131998" id="path338" fill="#FFFFFF"></path>
                            <path d="M62.3093318,79.467998 L63.6466651,77.3093314 C63.8879984,76.9199981 64.2706651,76.6506648 64.718665,76.5559981 C65.166665,76.4613314 65.626665,76.5533314 66.0039983,76.8119981 L70.1213316,79.627998 C70.8813316,80.147998 71.0759982,81.1853313 70.5559982,81.9453313 C70.0359982,82.7039979 68.9986649,82.8986646 68.2399983,82.3799979 L65.5613317,80.5466647 L65.142665,81.223998 C64.6573317,82.0053313 63.6306651,82.2466646 62.8479984,81.7626646 C62.0666651,81.2773313 61.8239985,80.2506647 62.3093318,79.467998" id="path340" fill="#FFFFFF"></path>
                            <path d="M78.667998,52.9186653 L98.8186642,50.5079987 C99.7319975,50.3986654 100.562664,51.0519987 100.670664,51.965332 C100.779997,52.8799987 100.127997,53.709332 99.2146642,53.8186653 L79.0626647,56.2279986 C78.1493314,56.3373319 77.3199981,55.6853319 77.2106647,54.7706653 C77.1013314,53.857332 77.7533314,53.0266653 78.667998,52.9186653" id="path342" fill="#FFFFFF"></path>
                            <path d="M72.1893315,56.2173319 L70.5346649,56.4106653 C70.1266649,52.901332 67.1413317,50.3173321 63.6973317,50.3173321 C63.4293317,50.3173321 63.1586651,50.3333321 62.8866651,50.3653321 C59.3773318,50.7719987 56.7906652,53.7586653 56.7919986,57.2013319 C56.7919986,57.4693319 56.8066652,57.7386652 56.8386652,58.0079985 L56.8399986,58.0133319 C57.2466652,61.5213318 60.2333318,64.1066651 63.6759984,64.1066651 C63.9439984,64.1066651 64.2146651,64.0906651 64.4879984,64.0586651 C67.9973316,63.6519984 70.5813316,60.6653318 70.5813316,57.2226652 C70.5813316,56.9559986 70.5653316,56.6839986 70.5333316,56.4066653 L70.5346649,56.4106653 L72.1893315,56.2173319 L73.8453315,56.0279986 C73.8906648,56.4266653 73.9146648,56.8253319 73.9146648,57.2226652 C73.9146648,62.3453318 70.0813316,66.7573317 64.8759984,67.3693316 C64.4719984,67.4159983 64.0719984,67.4399983 63.6759984,67.4399983 C58.5519985,67.438665 54.141332,63.6066651 53.529332,58.3999985 L53.529332,58.4039985 C53.481332,57.9973319 53.4586653,57.5959986 53.4586653,57.2013319 C53.4586653,52.077332 57.2919986,47.6666655 62.4986651,47.0546655 C62.8999984,47.0066655 63.3013318,46.9839988 63.6973317,46.9839988 C68.8213316,46.9839988 73.2319982,50.8173321 73.8453315,56.0239986 L73.8453315,56.0279986 L72.1893315,56.2173319" id="path344" fill="#FFFFFF"></path>
                            <path d="M59.6279985,56.5546653 L60.9653318,54.3946653 C61.2066651,54.005332 61.5893318,53.7359987 62.0373318,53.641332 C62.4853318,53.5466653 62.9453318,53.6386653 63.3239984,53.8959987 L67.4413316,56.7133319 C68.1999983,57.2333319 68.394665,58.2706652 67.874665,59.0306652 C67.354665,59.7893318 66.318665,59.9839985 65.558665,59.4653318 L62.8799984,57.6319986 L62.4613318,58.3093319 C61.9773318,59.0919985 60.9493318,59.3333319 60.1679985,58.8479985 C59.3853318,58.3639985 59.1439985,57.3359986 59.6279985,56.5546653" id="path346" fill="#FFFFFF"></path>
                            <path d="M91.729331,134.242663 L90.0733311,134.43733 C89.9599978,133.442663 89.1066644,132.70933 88.1373311,132.70933 L87.9066645,132.722663 C86.9106645,132.835997 86.1759978,133.68933 86.1773312,134.659997 L86.1893312,134.875997 L86.1919978,134.88933 C86.3039978,135.883997 87.1573312,136.618663 88.1266645,136.61733 L88.3599978,136.603997 C89.3533311,136.490663 90.0866644,135.638663 90.0866644,134.666663 L90.0733311,134.431997 L90.0733311,134.43733 L91.729331,134.242663 L93.3839977,134.05333 C93.4079977,134.25733 93.4199977,134.462663 93.4199977,134.666663 C93.4186643,137.318663 91.4386644,139.595997 88.7466644,139.914663 C88.5386645,139.938663 88.3319978,139.950663 88.1266645,139.950663 C85.4746645,139.950663 83.1999979,137.96933 82.8799979,135.278663 L82.8826646,135.291997 C82.8546646,135.070663 82.8439979,134.858663 82.8439979,134.659997 C82.8453313,132.007997 84.8253312,129.730663 87.5173311,129.411997 C87.7239978,129.387997 87.9306645,129.375997 88.1373311,129.375997 C90.7879977,129.37733 93.0639977,131.35733 93.3839977,134.047997 L93.3839977,134.05333 L91.729331,134.242663" id="path348" fill="#FFFFFF"></path>
                        </g>
                    </g>
                </g>
            </g>
        </g>
    </g>
</svg>