<?xml version="1.0" encoding="UTF-8"?>
<svg width="166px" height="166px" viewBox="0 0 166 166" version="1.1" xmlns="http://www.w3.org/2000/svg" xmlns:xlink="http://www.w3.org/1999/xlink">
    <!-- Generator: Sketch 53 (72520) - https://sketchapp.com -->
    <title>Group 4</title>
    <desc>Created with Sketch.</desc>
    <g id="Page-1" stroke="none" stroke-width="1" fill="none" fill-rule="evenodd">
        <g id="Artboard" transform="translate(-493.000000, -492.000000)" fill-rule="nonzero">
            <g id="logo-1" transform="translate(407.000000, 168.000000)">
                <g id="g10" transform="translate(400.000000, 400.000000) scale(-1, 1) rotate(-180.000000) translate(-400.000000, -400.000000) translate(0.000000, -0.000000)">
                    <g id="g12">
                        <g id="Group-4" transform="translate(86.261998, 310.115992)">
                            <path d="M165.535329,82.7653313 C165.535329,37.0546657 128.47933,7.10542736e-14 82.7673313,7.10542736e-14 C37.0573324,7.10542736e-14 2.4158453e-13,37.0546657 2.4158453e-13,82.7653313 C2.4158453e-13,128.478663 37.0573324,165.531996 82.7673313,165.531996 C128.47933,165.531996 165.535329,128.478663 165.535329,82.7653313" id="path382" fill="#06495C"></path>
                            <path d="M82.7673313,1.12265752e-12 L82.7673313,1.12265752e-12 C79.573998,1.12265752e-12 76.4286648,0.198666662 73.3273315,0.550666653 C61.4473318,12.453333 49.5619988,24.3493327 37.7015991,36.2706658 C36.2265324,37.7519991 35.3369324,40.303999 35.1259991,42.4519989 C34.7311991,46.4639988 34.6885325,50.0613321 32.2171992,53.9279987 C29.6797326,57.8999986 29.4229326,63.3573317 28.3057326,68.1973316 C27.3827993,72.1999982 26.6833327,76.2546648 25.8421327,80.2773313 C24.5619994,86.3973312 26.3541327,88.7293311 32.4630659,88.8266644 C32.6921325,88.8293311 32.9207992,88.8306644 33.1817325,88.8306644 C33.6286658,88.8306644 34.1691991,88.8279978 34.9619991,88.8279978 C34.1223991,90.1906644 33.4671992,91.1546644 32.9125325,92.1719977 C30.8369326,95.9773309 31.2249326,101.078664 34.3759991,103.969331 C36.2953324,105.730664 36.7625324,107.517331 36.6519991,109.875997 C36.5234658,112.623997 36.7015991,115.386664 36.6010658,118.13733 C36.5191991,120.379997 37.5593324,121.299997 39.6426657,121.299997 C39.6713323,121.299997 39.699999,121.299997 39.729199,121.299997 C39.851999,121.298664 39.9749323,121.298664 40.0978657,121.298664 C40.851599,121.298664 41.6046656,121.319997 42.3577323,121.319997 C43.1098656,121.319997 43.8614656,121.319997 44.6130656,121.319997 C50.2273321,121.319997 55.8419986,121.318664 61.4566651,121.31733 C67.324665,121.315997 73.1913315,121.314664 79.0593314,121.314664 C94.8739976,121.314664 110.689997,121.32533 126.504664,121.370664 C126.521997,121.370664 126.53933,121.370664 126.55533,121.370664 C129.33533,121.370664 131.397997,120.68133 133.433997,118.63733 C144.093996,107.942664 154.768663,97.2639976 165.437996,86.5799978 C165.495329,85.3146645 165.535329,84.0453312 165.535329,82.7653313 C165.535329,81.7613313 165.516663,80.7613313 165.481996,79.7653313 C163.901996,35.4439991 127.472663,1.12265752e-12 82.7673313,1.12265752e-12 L82.7673313,1.12265752e-12" id="path384" fill="#053B4B"></path>
                            <path d="M55.1446653,84.9733312 L53.515332,85.3253312 L47.8299988,58.9346652 L47.7993321,58.7399985 C47.7006655,57.6786652 46.8082655,56.8639986 45.7447989,56.8653319 L45.3619989,56.8653319 C44.9223989,56.8653319 44.4931989,56.6879986 44.1827989,56.3773319 C43.8729322,56.0666653 43.6953322,55.6386653 43.6953322,55.1986653 L43.6953322,42.6586656 C43.6942656,42.1533323 43.2729323,41.7293323 42.7639989,41.727999 L38.377599,41.727999 C38.1254657,41.727999 37.8994657,41.827999 37.7218657,42.0039989 C37.5467991,42.1813323 37.4463991,42.4066656 37.4458657,42.6586656 L37.4458657,55.1986653 C37.4458657,55.6373319 37.2686657,56.0666653 36.9577324,56.3773319 C36.6478658,56.6879986 36.2186658,56.8653319 35.7797324,56.8653319 L35.3967991,56.8653319 C34.3327991,56.8639986 33.4406658,57.6786652 33.3410658,58.7399985 L33.3114658,58.9346652 L27.6265326,85.3253312 L25.9967994,84.9733312 L27.656266,85.1306645 L27.6467993,85.3226645 C27.6489326,86.4466645 28.5639993,87.3813311 29.7119993,87.3839978 L51.4299987,87.3839978 C52.587332,87.3813311 53.491332,86.4519978 53.4939987,85.3239979 L53.483332,85.1199979 L55.1446653,84.9733312 L53.515332,85.3253312 L55.1446653,84.9733312 L56.8046652,84.8266645 C56.8193319,84.9893312 56.8259986,85.1559979 56.8259986,85.3239979 C56.8273319,86.7973312 56.2299986,88.1519978 55.259332,89.1266644 C54.291332,90.1039977 52.9259987,90.7186644 51.4299987,90.7173311 L29.7119993,90.7173311 C26.7073327,90.7133311 24.3145327,88.2799978 24.3139994,85.3226645 C24.3134661,85.1546645 24.3218661,84.9853312 24.3374661,84.8173312 L24.3677327,84.6226646 L30.0525326,58.2319985 L31.6817325,58.5826652 L30.0223992,58.4266652 C30.2849326,55.6573319 32.6067992,53.533332 35.3967991,53.5319987 L35.7797324,53.5319987 L35.7797324,55.1986653 L34.1130658,55.1986653 L34.1130658,42.6586656 C34.1213325,40.3013323 36.0213324,38.4026657 38.377599,38.3946657 L42.7639989,38.3946657 C45.1275989,38.3986657 47.0249322,40.3093323 47.0281322,42.6586656 L47.0281322,55.1986653 L45.3619989,55.1986653 L45.3619989,53.5319987 L45.7447989,53.5319987 C48.5339988,53.533332 50.8566654,55.6573319 51.1179987,58.4266652 L49.4593321,58.5826652 L51.0886654,58.2319985 L56.7739986,84.6226646 L56.8046652,84.8266645 L55.1446653,84.9733312" id="path386" fill="#FFFFFF"></path>
                            <path d="M32.3630659,99.2386642 L34.0291991,99.2386642 C34.0301325,101.051997 34.7587991,102.675997 35.9447991,103.863997 C37.1333324,105.050664 38.7582657,105.778664 40.5713323,105.779997 C42.3833323,105.778664 44.0077322,105.050664 45.1963989,103.863997 C46.3822655,102.675997 47.1113322,101.051997 47.1113322,99.2386642 C47.1113322,97.4253309 46.3822655,95.8013309 45.1963989,94.613331 C44.0077322,93.4266643 42.3833323,92.6986643 40.5713323,92.697331 C38.7582657,92.6986643 37.1333324,93.4266643 35.9447991,94.613331 C34.7587991,95.8013309 34.0301325,97.4253309 34.0291991,99.2386642 L32.3630659,99.2386642 L30.6963992,99.2386642 C30.6967992,93.7826643 35.1155991,89.3653311 40.5713323,89.3639978 C46.0254655,89.3653311 50.4446654,93.7826643 50.4446654,99.2386642 C50.4446654,104.693331 46.0254655,109.111997 40.5713323,109.113331 C35.1155991,109.111997 30.6967992,104.693331 30.6963992,99.2386642 L32.3630659,99.2386642" id="path388" fill="#FFFFFF"></path>
                            <path d="M73.4366648,62.6039984 L75.1033315,62.6039984 C75.1073315,64.6306651 76.7446647,66.2653317 78.7686647,66.2693317 C80.7953313,66.2653317 82.4313313,64.6306651 82.4339979,62.6039984 C82.4313313,60.5786652 80.7953313,58.9439985 78.7686647,58.9399985 C76.7433314,58.9439985 75.1073315,60.5799985 75.1033315,62.6039984 L73.4366648,62.6039984 L71.7699982,62.6039984 C71.7713315,58.7373319 74.9033315,55.6066653 78.7686647,55.6066653 C82.6353313,55.6066653 85.7673312,58.7386652 85.7673312,62.6039984 C85.7673312,66.470665 82.6353313,69.6026649 78.7686647,69.6026649 C74.9033315,69.6026649 71.7713315,66.4719983 71.7699982,62.6039984 L73.4366648,62.6039984" id="path390" fill="#FFFFFF"></path>
                            <path d="M52.8646653,86.2386645 L61.9339985,73.7973315 C62.2313318,73.3879982 62.6966651,73.1373315 63.2019984,73.1133315 C63.7073317,73.0893315 64.1926651,73.2946648 64.5286651,73.6733315 L72.9206648,83.1533313 C73.5299982,83.8426646 73.4659982,84.8946645 72.7779982,85.5053312 C72.0886649,86.1159978 71.0353316,86.0519978 70.4246649,85.3626645 L63.4059984,77.4346647 L55.5579986,88.2013311 C55.0166653,88.9453311 53.9739987,89.1093311 53.2299987,88.5666645 C52.4859987,88.0239978 52.323332,86.9813312 52.8646653,86.2386645" id="path392" fill="#FFFFFF"></path>
                            <path d="M72.3073315,82.7173313 L104.184664,95.8613309 C105.035331,96.2119976 105.440664,97.1866642 105.089997,98.0373309 C104.739331,98.8879975 103.764664,99.2933309 102.913997,98.9426642 L71.0379982,85.7986645 C70.1859982,85.4479979 69.7806649,84.4733312 70.1313316,83.6226646 C70.4833316,82.7719979 71.4566649,82.3666646 72.3073315,82.7173313" id="path394" fill="#FFFFFF"></path>
                            <path d="M67.5753316,43.3813322 L69.2419983,43.3813322 C69.2419983,46.0173322 70.3059982,48.3879988 72.0326649,50.1173321 C73.7619982,51.8439987 76.1326648,52.9066653 78.7686647,52.9079987 C81.4046646,52.9066653 83.7766646,51.8439987 85.5059979,50.1173321 C87.2326645,48.3879988 88.2953311,46.0173322 88.2966645,43.3813322 L89.0166644,43.3813322 L88.4353311,43.8479989 C88.4139978,43.8293322 88.2939978,43.6373322 88.2966645,43.3813322 L89.0166644,43.3813322 L88.4353311,43.8479989 L88.5433311,43.7613322 L88.4406645,43.8533322 L88.4353311,43.8479989 L88.5433311,43.7613322 L88.4406645,43.8533322 L88.3939978,43.8133322 C88.2673311,43.7053322 87.8726645,43.4826656 87.3033312,43.2853323 C86.4459978,42.9799989 85.2019979,42.6959989 83.7353312,42.5013323 C82.2673313,42.3053323 80.5713313,42.1906656 78.7686647,42.1906656 C75.7953314,42.1893323 73.0993315,42.5053323 71.2659982,42.9759989 C70.3526649,43.2053323 69.6539983,43.4866656 69.3153316,43.6959989 L69.1353316,43.8199989 L69.0979983,43.8546656 L68.7659983,43.5546656 L69.1686649,43.7346656 L69.0979983,43.8546656 L68.7659983,43.5546656 L69.1686649,43.7346656 L68.380665,43.3813322 L69.2419983,43.3813322 C69.2433316,43.5199989 69.2073316,43.6533322 69.1686649,43.7346656 L68.380665,43.3813322 L69.2419983,43.3813322 L67.5753316,43.3813322 L65.908665,43.3813322 C65.9059984,42.7306656 66.1819983,42.1533323 66.5019983,41.7626656 C67.076665,41.071999 67.760665,40.7066656 68.5499983,40.3626657 C69.7366649,39.867999 71.2193316,39.5106657 72.9553315,39.2546657 C74.6886648,38.999999 76.6646648,38.8586657 78.7686647,38.8573324 C81.977998,38.859999 84.8793312,39.1826657 87.0966645,39.7466657 C88.2099978,40.0333323 89.1499978,40.367999 89.9446644,40.8426656 C90.3406644,41.083999 90.7113311,41.3626656 91.0366644,41.7626656 C91.3566644,42.1533323 91.6326644,42.7306656 91.6299977,43.3813322 C91.6286644,50.4853321 85.8726645,56.2399986 78.7686647,56.2413319 C71.6659982,56.2399986 65.9099984,50.4853321 65.908665,43.3813322 L67.5753316,43.3813322" id="path396" fill="#FFFFFF"></path>
                            <path d="M95.6539976,62.6039984 L97.3193309,62.6039984 C97.3233309,64.6306651 98.9606642,66.2653317 100.985997,66.2693317 C103.011331,66.2653317 104.647331,64.6306651 104.651331,62.6039984 C104.647331,60.5786652 103.011331,58.9439985 100.985997,58.9399985 C98.9606642,58.9439985 97.3233309,60.5799985 97.3193309,62.6039984 L95.6539976,62.6039984 L93.987331,62.6039984 C93.987331,58.7373319 97.1193309,55.6066653 100.985997,55.6066653 C104.851331,55.6066653 107.983331,58.7386652 107.983331,62.6039984 C107.983331,66.470665 104.851331,69.6026649 100.985997,69.6026649 C97.1193309,69.6026649 93.987331,66.4719983 93.987331,62.6039984 L95.6539976,62.6039984" id="path398" fill="#FFFFFF"></path>
                            <path d="M89.7913311,43.3813322 L91.4579977,43.3813322 C91.459331,46.0173322 92.5219977,48.3879988 94.2486643,50.1173321 C95.9779976,51.8439987 98.3486642,52.9066653 100.985997,52.9079987 C103.621997,52.9066653 105.992664,51.8439987 107.721997,50.1173321 C109.448664,48.3879988 110.511331,46.0173322 110.512664,43.3813322 L111.233997,43.3813322 L110.651331,43.8479989 C110.629997,43.8293322 110.509997,43.6373322 110.512664,43.3813322 L111.233997,43.3813322 L110.651331,43.8479989 L110.760664,43.7613322 L110.656664,43.8533322 L110.651331,43.8479989 L110.760664,43.7613322 L110.656664,43.8533322 L110.609997,43.8133322 C110.483331,43.7053322 110.088664,43.4826656 109.519331,43.2853323 C108.663331,42.9799989 107.417997,42.6959989 105.951331,42.5013323 C104.483331,42.3053323 102.787331,42.1906656 100.985997,42.1906656 C98.0126642,42.1893323 95.315331,42.5053323 93.4819977,42.9759989 C92.5699977,43.2053323 91.8699977,43.4866656 91.531331,43.6959989 L91.351331,43.8199989 L91.3139977,43.8546656 L90.9819977,43.5546656 L91.3846644,43.7346656 L91.3139977,43.8546656 L90.9819977,43.5546656 L91.3846644,43.7346656 L90.5966644,43.3813322 L91.4579977,43.3813322 C91.459331,43.5199989 91.423331,43.6533322 91.3846644,43.7346656 L90.5966644,43.3813322 L91.4579977,43.3813322 L89.7913311,43.3813322 L88.1246645,43.3813322 C88.1219978,42.7306656 88.3979978,42.1533323 88.7179978,41.7626656 C89.2926644,41.071999 89.9766644,40.7066656 90.7659977,40.3626657 C91.9526644,39.867999 93.435331,39.5106657 95.171331,39.2546657 C96.9046642,38.999999 98.8806642,38.8586657 100.985997,38.8573324 C104.193997,38.859999 107.095331,39.1826657 109.312664,39.7466657 C110.425997,40.0333323 111.365997,40.367999 112.160664,40.8426656 C112.557997,41.083999 112.927331,41.3626656 113.252664,41.7626656 C113.572664,42.1533323 113.848664,42.7306656 113.845997,43.3813322 C113.844664,50.4853321 108.088664,56.2399986 100.985997,56.2413319 C93.8819977,56.2399986 88.1259978,50.4853321 88.1246645,43.3813322 L89.7913311,43.3813322" id="path400" fill="#FFFFFF"></path>
                            <path d="M119.077997,62.6039984 L120.744664,62.6039984 C120.748664,64.6306651 122.38333,66.2653317 124.408664,66.2693317 C126.43533,66.2653317 128.069997,64.6306651 128.073997,62.6039984 C128.069997,60.5786652 126.43533,58.9439985 124.408664,58.9399985 C122.38333,58.9439985 120.748664,60.5786652 120.744664,62.6039984 L119.077997,62.6039984 L117.41133,62.6039984 C117.41133,58.7386652 120.54333,55.6066653 124.408664,55.6066653 C128.27533,55.6066653 131.405997,58.7386652 131.40733,62.6039984 C131.40733,66.470665 128.27533,69.6026649 124.408664,69.6026649 C120.54333,69.6026649 117.41133,66.470665 117.41133,62.6039984 L119.077997,62.6039984" id="path402" fill="#FFFFFF"></path>
                            <path d="M113.215331,43.3813322 L114.881997,43.3813322 C114.88333,46.0173322 115.945997,48.3879988 117.672664,50.1173321 C119.401997,51.8439987 121.772664,52.9066653 124.408664,52.9079987 C127.044663,52.9066653 129.416663,51.8439987 131.144663,50.1173321 C132.872663,48.3879988 133.93533,46.0173322 133.93533,43.3813322 L134.656663,43.3813322 L134.073997,43.8479989 C134.052663,43.8293322 133.932663,43.6373322 133.93533,43.3813322 L134.656663,43.3813322 L134.073997,43.8479989 L134.18733,43.7573322 L134.07933,43.8533322 L134.073997,43.8479989 L134.18733,43.7573322 L134.07933,43.8533322 L134.032663,43.8133322 C133.905997,43.7053322 133.51133,43.4826656 132.94333,43.2853323 C132.085997,42.9799989 130.841997,42.6959989 129.37533,42.5013323 C127.90733,42.3053323 126.209997,42.1906656 124.408664,42.1906656 C121.43533,42.1893323 118.73933,42.5053323 116.905997,42.9759989 C115.993997,43.2053323 115.29533,43.4866656 114.956664,43.6959989 L114.776664,43.8199989 L114.737997,43.8546656 L114.405997,43.5546656 L114.809997,43.7346656 L114.737997,43.8546656 L114.405997,43.5546656 L114.809997,43.7346656 L114.020664,43.3813322 L114.881997,43.3813322 C114.88333,43.5199989 114.84733,43.6533322 114.809997,43.7346656 L114.020664,43.3813322 L114.881997,43.3813322 L113.215331,43.3813322 L111.548664,43.3813322 C111.545997,42.7306656 111.821997,42.1533323 112.141997,41.7626656 C112.716664,41.071999 113.400664,40.7066656 114.19133,40.3626657 C115.377997,39.867999 116.85933,39.5106657 118.59533,39.2546657 C120.328664,38.999999 122.304664,38.8586657 124.408664,38.8573324 C127.617997,38.859999 130.517997,39.1826657 132.73533,39.7466657 C133.848663,40.0333323 134.789997,40.367999 135.58333,40.8426656 C135.980663,41.083999 136.349997,41.3626656 136.67533,41.7626656 C136.99533,42.1533323 137.27133,42.7306656 137.268663,43.3813322 C137.26733,50.4853321 131.51133,56.2399986 124.408664,56.2413319 C117.305997,56.2399986 111.549997,50.4853321 111.548664,43.3813322 L113.215331,43.3813322" id="path404" fill="#FFFFFF"></path>
                            <path d="M119.088664,64.4959984 L106.305997,64.4959984 C105.384664,64.4959984 104.639331,63.7493317 104.639331,62.8293318 C104.639331,61.9093318 105.384664,61.1626651 106.305997,61.1626651 L119.088664,61.1626651 C120.008664,61.1626651 120.75533,61.9093318 120.75533,62.8293318 C120.75533,63.7493317 120.008664,64.4959984 119.088664,64.4959984" id="path406" fill="#FFFFFF"></path>
                            <path d="M50.3753321,61.1626651 L73.4486648,61.1626651 C74.3686648,61.1626651 75.1153315,61.9093318 75.1153315,62.8293318 C75.1153315,63.7493317 74.3686648,64.4959984 73.4486648,64.4959984 L50.3753321,64.4959984 C49.4539988,64.4959984 48.7086654,63.7493317 48.7086654,62.8293318 C48.7086654,61.9093318 49.4539988,61.1626651 50.3753321,61.1626651" id="path408" fill="#FFFFFF"></path>
                            <path d="M84.0899979,61.1626651 L95.6646643,61.1626651 C96.5846643,61.1626651 97.3313309,61.9093318 97.3313309,62.8293318 C97.3313309,63.7493317 96.5846643,64.4959984 95.6646643,64.4959984 L84.0899979,64.4959984 C83.1686646,64.4959984 82.4233313,63.7493317 82.4233313,62.8293318 C82.4233313,61.9093318 83.1686646,61.1626651 84.0899979,61.1626651" id="path410" fill="#FFFFFF"></path>
                            <path d="M39.167199,106.847997 L39.167199,119.92533 L127.116663,119.92533 L127.116663,65.6493317 C127.116663,64.7293317 127.86333,63.9826651 128.78333,63.9826651 C129.70333,63.9826651 130.449997,64.7293317 130.449997,65.6493317 L130.449997,121.591997 C130.449997,122.030664 130.272663,122.459997 129.961997,122.770664 C129.65133,123.079997 129.221997,123.258664 128.78333,123.258664 L37.5010657,123.258664 C37.0619991,123.258664 36.6327991,123.079997 36.3223991,122.770664 C36.0119991,122.459997 35.8343991,122.030664 35.8343991,121.591997 L35.8343991,106.847997 C35.8343991,105.926664 36.5801324,105.181331 37.5010657,105.181331 C38.4213324,105.181331 39.1677324,105.926664 39.1677324,106.847997" id="path414" fill="#FFFFFF"></path>
                        </g>
                    </g>
                </g>
            </g>
        </g>
    </g>
</svg>