<?xml version="1.0" encoding="UTF-8"?>
<svg width="153px" height="153px" viewBox="0 0 153 153" version="1.1" xmlns="http://www.w3.org/2000/svg" xmlns:xlink="http://www.w3.org/1999/xlink">
    <!-- Generator: Sketch 53 (72520) - https://sketchapp.com -->
    <title>Group</title>
    <desc>Created with Sketch.</desc>
    <g id="Page-1" stroke="none" stroke-width="1" fill="none" fill-rule="evenodd">
        <g id="Artboard" transform="translate(-1265.000000, -1405.000000)" fill-rule="nonzero">
            <g id="Logo-2" transform="translate(1265.000000, 149.000000)">
                <g id="g10" transform="translate(531.000000, 704.500000) scale(-1, 1) rotate(-180.000000) translate(-531.000000, -704.500000) ">
                    <g id="g12">
                        <g id="Group" transform="translate(0.000000, 0.553337)">
                            <path d="M152.450663,76.2239981 C152.450663,34.1253325 118.322664,9.66338121e-13 76.2266648,9.66338121e-13 C34.1279991,9.66338121e-13 4.40536496e-13,34.1253325 4.40536496e-13,76.2239981 C4.40536496e-13,118.322664 34.1279991,152.446663 76.2266648,152.446663 C118.322664,152.446663 152.450663,118.322664 152.450663,76.2239981" id="path222" fill="#06495C"></path>
                            <path d="M76.2266648,8.66862138e-13 C76.1933314,8.66862138e-13 76.1613314,8.66862138e-13 76.1279981,8.66862138e-13 C73.1626648,0.0039999999 70.2439982,0.195999995 67.3679983,0.527999987 C55.7666653,12.133333 44.1666656,23.7373327 32.5666659,35.3426658 C29.9226659,37.9879991 28.510666,45.1626655 30.4199992,48.3599988 C31.2479992,49.7479988 33.0266658,50.7413321 34.5813325,51.465332 C35.7213324,51.993332 37.1999991,51.789332 38.855999,51.941332 C37.2173324,55.3666653 36.2599991,58.7626652 38.931999,61.8879985 C40.4733323,63.6906651 42.2306656,64.5706651 44.2906656,64.5706651 C45.8066655,64.5706651 47.4879988,64.0933317 49.3653321,63.1559984 C48.3399988,64.3693317 47.9226655,64.898665 47.4666655,65.3933317 C47.0133322,65.8879984 46.5533322,66.3879983 46.0399988,66.818665 C43.6493322,68.8226649 41.991999,71.0546649 42.8039989,74.4839981 C42.9706656,75.1879981 42.3319989,76.2626648 41.771999,76.9199981 C40.5306657,78.379998 38.7253324,79.4746647 37.8439991,81.0973313 C36.5146658,83.5413312 35.0719991,86.2693312 34.9266658,88.9439978 C34.5306658,96.2279976 34.7533325,103.549331 34.8013325,110.854664 C34.8439991,117.270664 38.8853324,121.255997 45.3093322,121.259997 C47.8426655,121.26133 50.3746654,121.26133 52.9079987,121.26133 C57.0119986,121.26133 61.1159985,121.259997 65.2199984,121.258664 C69.3853316,121.25733 73.5479982,121.254664 77.7133314,121.254664 C87.6759978,121.254664 97.6399976,121.26533 107.602664,121.306664 C107.625331,121.307997 107.647997,121.307997 107.670664,121.307997 C111.373331,121.307997 114.302664,120.042664 116.86533,117.474664 C128.634663,105.678664 140.419996,93.897331 152.20133,82.1119979 C152.347996,80.1973313 152.446663,78.267998 152.450663,76.3173314 C152.450663,76.2866648 152.450663,76.2546648 152.450663,76.2239981 L152.450663,76.2239981 C152.450663,34.1253325 118.322664,9.27495116e-13 76.2266648,9.27495116e-13" id="path226" fill="#053B4B"></path>
                            <path d="M80.5533313,104.518664 C79.7413313,104.518664 79.079998,105.178664 79.079998,105.991997 C79.079998,106.803997 79.7413313,107.465331 80.5533313,107.465331 C81.3653313,107.465331 82.0266646,106.803997 82.0266646,105.991997 C82.0266646,105.178664 81.3653313,104.518664 80.5533313,104.518664 Z M80.5533313,110.354664 C78.1453314,110.354664 76.1906648,108.399997 76.1906648,105.991997 C76.1906648,103.583997 78.1453314,101.629331 80.5533313,101.629331 C82.9519979,101.629331 84.9159979,103.583997 84.9159979,105.991997 C84.9159979,108.399997 82.9519979,110.354664 80.5533313,110.354664 Z M105.430664,94.389331 L103.742664,94.1866643 L103.701331,94.181331 L103.703997,94.1639976 L103.701331,94.181331 L103.659997,94.1759976 C103.502664,93.5666643 103.259997,92.9906643 102.946664,92.4599977 L102.973331,92.4266644 L102.997331,92.3959977 L104.049331,91.0546644 L101.974664,88.9813311 L100.633331,90.0319977 L100.603997,90.0559977 L100.570664,90.0826644 C100.039997,89.7706644 99.4639975,89.5279978 98.8546642,89.3706644 L98.8493309,89.3293311 L98.8453309,89.2893311 L98.6399975,87.5999978 L95.7079976,87.5999978 L95.5039976,89.2893311 L95.4986643,89.3293311 L95.4933309,89.3706644 C94.8839976,89.5279978 94.3066643,89.7706644 93.7786643,90.0826644 L93.7426643,90.0559977 L93.713331,90.0319977 L92.3719977,88.9813311 L90.2986644,91.0546644 L91.3506644,92.3959977 L91.373331,92.425331 L91.401331,92.4599977 C91.0879977,92.9906643 90.8466644,93.5666643 90.6879977,94.1759976 L90.6453311,94.181331 L90.6066644,94.1866643 L88.9173311,94.389331 L88.9173311,97.3226642 L90.6066644,97.5266642 L90.6453311,97.5319976 L90.6879977,97.5373309 C90.8466644,98.1466642 91.0879977,98.7226642 91.401331,99.2519975 L91.373331,99.2866642 L91.3506644,99.3173309 L90.2986644,100.658664 L92.3719977,102.731997 L93.713331,101.679997 L93.7426643,101.657331 L93.7786643,101.630664 C94.3066643,101.942664 94.8839976,102.185331 95.4933309,102.342664 L95.4986643,102.383997 L95.5039976,102.423997 L95.7079976,104.113331 L98.6399975,104.113331 L98.8453309,102.423997 L98.8493309,102.383997 L98.8546642,102.342664 C99.4639975,102.185331 100.039997,101.942664 100.570664,101.630664 L100.603997,101.657331 L100.633331,101.679997 L101.974664,102.731997 L104.049331,100.658664 L102.997331,99.3173309 L102.973331,99.2866642 L102.946664,99.2519975 C103.259997,98.7226642 103.502664,98.1466642 103.659997,97.5373309 L103.701331,97.5319976 L103.742664,97.5266642 L105.430664,97.3226642 L105.430664,94.389331 Z M85.3506645,99.1159975 L84.0119979,100.165331 L83.9813312,100.194664 L83.9439979,100.213331 C83.4133312,99.9053308 82.8359979,99.6639975 82.2293313,99.5013308 L82.2293313,99.4626642 L82.2199979,99.4239975 L82.0186646,97.7386642 L79.079998,97.7386642 L78.8786647,99.4239975 L78.8786647,99.4626642 L78.867998,99.5013308 C78.2613314,99.6639975 77.6839981,99.9053308 77.1546647,100.213331 L77.1159981,100.194664 L77.0866647,100.165331 L75.7479981,99.1159975 L73.6786648,101.186664 L74.7279981,102.534664 L74.7466648,102.563997 L74.7759981,102.591997 C74.4666648,103.122664 74.2173315,103.699997 74.0639981,104.306664 L74.0239981,104.315997 L73.9853315,104.315997 L72.2919982,104.527997 L72.2919982,107.455997 L73.9853315,107.658664 L74.0239981,107.667997 L74.0639981,107.667997 C74.2173315,108.283997 74.4666648,108.861331 74.7759981,109.390664 L74.7466648,109.419997 L74.7279981,109.449331 L73.6786648,110.787997 L75.7479981,112.867997 L77.0866647,111.818664 L77.1159981,111.789331 L77.1546647,111.759997 C77.6839981,112.078664 78.2613314,112.318664 78.867998,112.473331 L78.8786647,112.521331 L78.8786647,112.559997 L79.079998,114.24533 L82.0186646,114.24533 L82.2199979,112.559997 L82.2293313,112.521331 L82.2293313,112.473331 C82.8359979,112.318664 83.4133312,112.078664 83.9439979,111.759997 L83.9813312,111.789331 L84.0119979,111.818664 L85.3506645,112.867997 L87.4293311,110.787997 L86.3706645,109.449331 L86.3519978,109.419997 L86.3226645,109.390664 C86.6399978,108.861331 86.8813312,108.283997 87.0346645,107.667997 L87.0733312,107.667997 L87.1226645,107.658664 L88.8066644,107.455997 L88.8066644,104.527997 L87.1226645,104.315997 L87.0733312,104.315997 L87.0346645,104.306664 C86.8813312,103.699997 86.6399978,103.122664 86.3226645,102.591997 L86.3519978,102.563997 L86.3706645,102.534664 L87.4293311,101.186664 L85.3506645,99.1159975 Z M69.2399983,98.5826642 L67.1039983,98.3253309 L67.054665,98.3186642 L67.0013317,98.3119975 C66.8013317,97.5413309 66.4959983,96.8133309 66.0999983,96.1426643 L66.1333317,96.0999976 L66.1639983,96.0613309 L67.4933316,94.365331 L64.870665,91.7439977 L63.1759984,93.073331 L63.1359984,93.1026643 L63.0933318,93.137331 C62.4239984,92.741331 61.6946651,92.4346644 60.9239985,92.2359977 L60.9173318,92.1826644 L60.9106651,92.133331 L60.6533318,89.9973311 L56.9453319,89.9973311 L56.6866652,92.133331 L56.6813319,92.1826644 L56.6746652,92.2359977 C55.9026653,92.4346644 55.1746653,92.741331 54.5039986,93.137331 L54.461332,93.1026643 L54.4226653,93.073331 L52.7279987,91.7439977 L50.1053321,94.365331 L51.4346654,96.0613309 L51.465332,96.0999976 L51.4986654,96.1426643 C51.1026654,96.8133309 50.7973321,97.5413309 50.5959987,98.3119975 L50.5439987,98.3186642 L50.4933321,98.3253309 L48.3573321,98.5826642 L48.3573321,102.291997 L50.4933321,102.550664 L50.5439987,102.555997 L50.5959987,102.562664 C50.7973321,103.333331 51.1026654,104.062664 51.4986654,104.731997 L51.465332,104.775997 L51.4346654,104.814664 L50.1053321,106.509331 L52.7279987,109.131997 L54.4226653,107.802664 L54.461332,107.773331 L54.5039986,107.738664 C55.1746653,108.134664 55.9026653,108.439997 56.6746652,108.639997 L56.6813319,108.693331 L56.6866652,108.742664 L56.9453319,110.878664 L60.6533318,110.878664 L60.9106651,108.742664 L60.9173318,108.693331 L60.9239985,108.639997 C61.6946651,108.439997 62.4239984,108.134664 63.0933318,107.738664 L63.1359984,107.773331 L63.1759984,107.802664 L64.870665,109.131997 L67.4933316,106.509331 L66.1639983,104.814664 L66.1333317,104.775997 L66.0999983,104.731997 C66.4959983,104.062664 66.8013317,103.333331 67.0013317,102.562664 L67.054665,102.555997 L67.1039983,102.550664 L69.2399983,102.291997 L69.2399983,98.5826642 Z M108.318664,94.389331 L108.318664,97.3226642 C108.318664,98.4039975 107.722664,99.3586642 106.823997,99.8546642 C107.109331,100.838664 106.855997,101.935997 106.091997,102.701331 L104.019997,104.774664 C103.253331,105.539997 102.155997,105.791997 101.170664,105.507997 C100.675997,106.405331 99.7213308,107.001331 98.6399975,107.001331 L95.7066643,107.001331 C94.6266643,107.001331 93.6706643,106.405331 93.1759977,105.506664 C92.6919977,105.646664 92.1826644,105.653331 91.6959977,105.537331 L91.6959977,107.454664 C91.6959977,108.534664 91.1013311,109.487997 90.2053311,109.983997 C90.4893311,110.967997 90.2386644,112.066664 89.4719978,112.830664 L87.3933311,114.910664 C86.6293312,115.674664 85.5319979,115.92933 84.5453312,115.643997 C84.0493312,116.538664 83.0959979,117.134664 82.0173313,117.134664 L79.079998,117.134664 C78.0013314,117.134664 77.0479981,116.538664 76.5519981,115.643997 C75.5639981,115.92933 74.4639981,115.674664 73.6999982,114.906664 L71.6306649,112.826664 C70.8693316,112.062664 70.6186649,110.970664 70.9013316,109.987997 C70.2999982,109.658664 69.8399983,109.122664 69.5959983,108.481331 L69.5359983,108.551997 L66.9133317,111.174664 C65.982665,112.106664 64.5546651,112.279997 63.4399984,111.641331 C63.1013318,112.879997 61.9706651,113.767997 60.6533318,113.767997 L56.9453319,113.767997 C55.6266653,113.767997 54.4959986,112.879997 54.157332,111.641331 C53.0439987,112.278664 51.6159987,112.106664 50.6853321,111.174664 L48.0626655,108.551997 C47.1306655,107.621331 46.9586655,106.191997 47.5946655,105.078664 C46.3559988,104.741331 45.4679989,103.609331 45.4679989,102.291997 L45.4679989,98.5826642 C45.4679989,97.2653309 46.3559988,96.1346643 47.5946655,95.7959976 C46.9586655,94.6826643 47.1306655,93.2546643 48.0626655,92.3226644 L50.6853321,89.6999978 C51.6159987,88.7679978 53.0439987,88.5946645 54.157332,89.2333311 C54.4959986,87.9946645 55.6266653,87.1079978 56.9453319,87.1079978 L60.6533318,87.1079978 C61.9706651,87.1079978 63.1013318,87.9946645 63.4399984,89.2333311 C64.5559984,88.5959978 65.9813317,88.7706644 66.9133317,89.6999978 L69.5359983,92.3226644 C70.4679982,93.2546643 70.6399982,94.681331 70.0026649,95.7959976 C71.2413316,96.1346643 72.1293315,97.2653309 72.1293315,98.5826642 L72.1293315,98.6493309 L73.7053315,97.0733309 C74.4679981,96.3079976 75.5653314,96.0546643 76.5519981,96.3399976 C77.0479981,95.4439976 78.0013314,94.849331 79.079998,94.849331 L82.0173313,94.849331 C83.0959979,94.849331 84.0493312,95.4439976 84.5453312,96.3399976 C85.0306645,96.1999976 85.5426645,96.1919976 86.0279978,96.3093309 L86.0279978,94.389331 C86.0279978,93.309331 86.6266645,92.3546644 87.5226645,91.8586644 C87.2386645,90.8746644 87.4906645,89.7773311 88.2559978,89.0133311 L90.3293311,86.9386645 C91.0933311,86.1733312 92.1906644,85.9199979 93.1759977,86.2053312 C93.6706643,85.3066645 94.6266643,84.7106645 95.7066643,84.7106645 L98.6399975,84.7106645 C99.7213308,84.7106645 100.677331,85.3066645 101.171997,86.2053312 C102.157331,85.9199979 103.253331,86.1733312 104.019997,86.9386645 L106.091997,89.0133311 C106.855997,89.7773311 107.107997,90.8746644 106.823997,91.8586644 C107.722664,92.353331 108.318664,93.309331 108.318664,94.389331 L108.318664,94.389331 Z M97.1733309,94.9079976 C96.6506643,94.9079976 96.2266643,95.333331 96.2266643,95.8559976 C96.2266643,96.3786643 96.6506643,96.8039976 97.1733309,96.8039976 C97.6959976,96.8039976 98.1226642,96.3786643 98.1226642,95.8559976 C98.1226642,95.333331 97.6959976,94.9079976 97.1733309,94.9079976 Z M97.1746642,99.6933308 C95.0586643,99.6933308 93.337331,97.9719976 93.337331,95.8559976 C93.337331,93.741331 95.0586643,92.0199977 97.1746642,92.0199977 C99.2906642,92.0199977 101.011997,93.741331 101.011997,95.8559976 C101.011997,97.9719976 99.2906642,99.6933308 97.1746642,99.6933308 Z M58.7986652,99.0439975 C58.0306652,99.0439975 57.4053319,99.6693308 57.4053319,100.438664 C57.4053319,101.206664 58.0306652,101.831997 58.7986652,101.831997 C59.5679985,101.831997 60.1933318,101.206664 60.1933318,100.438664 C60.1933318,99.6693308 59.5679985,99.0439975 58.7986652,99.0439975 Z M58.7986652,104.719997 C56.4373319,104.719997 54.517332,102.799997 54.517332,100.438664 C54.517332,98.0759975 56.4373319,96.1546643 58.7986652,96.1546643 C61.1599985,96.1546643 63.0813318,98.0759975 63.0813318,100.438664 C63.0813318,102.799997 61.1599985,104.719997 58.7986652,104.719997 Z M104.354664,83.5479979 C103.781331,83.5479979 103.238664,83.2946646 102.871997,82.8533313 C102.506664,82.4119979 102.354664,81.8333313 102.459997,81.2706646 L102.646664,80.2613313 L100.807997,82.7626646 C100.445331,83.2559979 99.8693308,83.5479979 99.2559975,83.5479979 L75.6133314,83.5479979 C74.5919981,83.5479979 73.7479982,82.7506646 73.6906648,81.731998 L73.4999982,78.4026647 L70.7813316,82.6586646 C70.4279982,83.2133313 69.8159983,83.5479979 69.1586649,83.5479979 L51.3199987,83.5479979 C50.7679987,83.5479979 50.2426654,83.3106646 49.8759988,82.8959979 L45.6613322,78.1213314 L45.9999989,81.4253313 C46.0559988,81.967998 45.8786655,82.5079979 45.5146655,82.9119979 C45.1479989,83.3173313 44.6293322,83.5479979 44.0839989,83.5479979 L43.1239989,83.5479979 C39.915999,83.5479979 37.3066657,86.1586645 37.3066657,89.3653311 L37.3066657,112.559997 C37.3066657,115.766664 39.915999,118.375997 43.1239989,118.375997 L107.105331,118.375997 C110.311997,118.375997 112.921331,115.766664 112.921331,112.559997 L112.921331,89.3653311 C112.921331,86.1586645 110.311997,83.5479979 107.105331,83.5479979 L104.354664,83.5479979 Z M116.774664,89.3653311 L116.774664,112.559997 C116.774664,117.890664 112.435997,122.22933 107.105331,122.22933 L43.1239989,122.22933 C37.7933324,122.22933 33.4546658,117.890664 33.4546658,112.559997 L33.4546658,89.3653311 C33.4546658,84.4293312 37.1746657,80.343998 41.9573323,79.7666647 L41.2173323,72.5413315 C41.131999,71.7079982 41.5933323,70.9159982 42.3599989,70.5799982 C43.1279989,70.2453316 44.0226656,70.4439982 44.5759989,71.0719982 L52.1879987,79.695998 L68.1039983,79.695998 L73.4599982,71.3079982 C73.9093315,70.6053316 74.7613315,70.2706649 75.5706648,70.4813316 C76.3786648,70.6919982 76.9586647,71.4013315 77.0066647,72.2359982 L77.4319981,79.695998 L98.2826642,79.695998 L104.522664,71.2039982 C104.895997,70.6973316 105.477331,70.4186649 106.075997,70.4186649 C106.333331,70.4186649 106.593331,70.4693316 106.842664,70.5786649 C107.665331,70.9346649 108.133331,71.8133315 107.969331,72.6959982 L106.670664,79.695998 L107.105331,79.695998 C112.435997,79.695998 116.774664,84.0346646 116.774664,89.3653311 L116.774664,89.3653311 Z M78.8826647,42.8933323 L78.8826647,37.7519991 C77.6879981,37.3546657 76.6533314,37.3093324 74.7626648,37.3093324 L74.5733315,37.3093324 C72.9933315,37.3159991 71.8666649,37.3079991 70.7399982,37.5813324 L70.7399982,42.8933323 C70.7399982,43.9573322 69.8679983,44.8199989 68.8039983,44.8199989 C67.7413316,44.8199989 66.878665,43.9573322 66.878665,42.8933323 L66.878665,39.0986657 C65.654665,39.7586657 64.6319984,40.527999 63.8893317,41.2333323 L63.8893317,47.0599988 C63.8893317,48.1359988 64.7639984,49.0133321 65.8413317,49.0133321 L83.7146646,49.0133321 C84.7933312,49.0133321 85.6679979,48.1359988 85.6679979,47.0599988 L85.6679979,41.783999 C84.9813312,41.0666656 84.0039979,40.243999 82.8226646,39.519999 L82.8226646,42.8933323 C82.8226646,43.9573322 81.8733313,44.8199989 80.8093313,44.8199989 C79.7453313,44.8199989 78.8826647,43.9573322 78.8826647,42.8933323 Z M74.8066648,61.8853318 C76.6973314,61.8853318 78.235998,60.3493318 78.235998,58.4586652 C78.235998,56.5679986 76.6973314,55.0306653 74.8066648,55.0306653 C72.9159982,55.0306653 71.3799982,56.5679986 71.3799982,58.4586652 C71.3799982,60.3493318 72.9159982,61.8853318 74.8066648,61.8853318 Z M83.7146646,52.865332 L79.4613313,52.865332 C81.0653313,54.201332 82.0879979,56.2119986 82.0879979,58.4586652 C82.0879979,62.4719984 78.8213314,65.738665 74.8066648,65.738665 C70.7933316,65.738665 67.526665,62.4719984 67.526665,58.4586652 C67.526665,56.2119986 68.550665,54.201332 70.1533316,52.865332 L65.8413317,52.865332 C62.6399984,52.865332 60.0359985,50.2599987 60.0359985,47.0599988 L60.0359985,40.4466657 C60.0359985,39.967999 60.2159985,39.5053323 60.5386652,39.1493324 C62.4093318,37.0946657 65.2333317,35.3253325 68.114665,34.3999991 C70.3426649,33.4813325 72.1466649,33.4573325 74.3893315,33.4573325 L74.5759981,33.4573325 L74.7626648,33.4573325 C77.2399981,33.4573325 78.9133314,33.5146658 81.335998,34.5799991 L81.5506646,34.6439991 C84.9599979,35.8733324 87.6746645,38.1253324 89.0773311,39.8226657 C89.3639978,40.167999 89.5213311,40.6013323 89.5213311,41.0493323 L89.5213311,47.0599988 C89.5213311,50.2599987 86.9159978,52.865332 83.7146646,52.865332 L83.7146646,52.865332 Z M110.562664,42.8933323 L110.562664,37.7519991 C109.367997,37.3546657 108.333331,37.3093324 106.442664,37.3093324 L106.251997,37.3093324 C104.685331,37.3159991 103.546664,37.3079991 102.418664,37.5813324 L102.418664,42.8933323 C102.418664,43.9573322 101.547997,44.8199989 100.483997,44.8199989 C99.4199975,44.8199989 98.5586642,43.9573322 98.5586642,42.8933323 L98.5586642,39.0986657 C97.3333309,39.7586657 96.3119976,40.527999 95.5693309,41.2333323 L95.5693309,47.0599988 C95.5693309,48.1359988 96.4439976,49.0133321 97.5213309,49.0133321 L115.395997,49.0133321 C116.471997,49.0133321 117.34933,48.1359988 117.34933,47.0599988 L117.34933,41.783999 C116.66133,41.0666656 115.683997,40.243999 114.503997,39.519999 L114.503997,42.8933323 C114.503997,43.9573322 113.55333,44.8199989 112.489331,44.8199989 C111.425331,44.8199989 110.562664,43.9573322 110.562664,42.8933323 L110.562664,42.8933323 Z M106.486664,61.8853318 C108.377331,61.8853318 109.914664,60.3493318 109.914664,58.4586652 C109.914664,56.5679986 108.377331,55.0306653 106.486664,55.0306653 C104.597331,55.0306653 103.059997,56.5679986 103.059997,58.4586652 C103.059997,60.3493318 104.597331,61.8853318 106.486664,61.8853318 Z M115.395997,52.865332 L111.139997,52.865332 C112.743997,54.201332 113.767997,56.2119986 113.767997,58.4586652 C113.767997,62.4719984 110.502664,65.738665 106.486664,65.738665 C102.471997,65.738665 99.2066642,62.4719984 99.2066642,58.4586652 C99.2066642,56.2119986 100.230664,54.201332 101.834664,52.865332 L97.5213309,52.865332 C94.3199976,52.865332 91.7159977,50.2599987 91.7159977,47.0599988 L91.7159977,40.4466657 C91.7159977,39.967999 91.8946644,39.5053323 92.217331,39.1493324 C94.0866643,37.0946657 96.9119976,35.3253325 99.7959975,34.3999991 C102.022664,33.4813325 103.827997,33.4573325 106.070664,33.4573325 L106.254664,33.4573325 L106.442664,33.4573325 C108.918664,33.4573325 110.593331,33.5146658 113.017331,34.5799991 L113.230664,34.6439991 C116.635997,35.8733324 119.35333,38.123999 120.75733,39.8213323 C121.043997,40.1666657 121.199997,40.6013323 121.199997,41.0493323 L121.199997,47.0599988 C121.199997,50.2599987 118.595997,52.865332 115.395997,52.865332 L115.395997,52.865332 Z M32.2093325,47.0599988 C32.2093325,48.1359988 33.0839992,49.0133321 34.1613325,49.0133321 L52.0346654,49.0133321 C53.113332,49.0133321 53.9879987,48.1359988 53.9879987,47.0599988 L53.9879987,41.783999 C53.301332,41.0666656 52.3239987,40.2453323 51.1439987,39.519999 L51.1439987,42.8933323 C51.1439987,43.9573322 50.1933321,44.8199989 49.1306654,44.8199989 C48.0666655,44.8199989 47.2039988,43.9573322 47.2039988,42.8933323 L47.2039988,37.7519991 C46.0093322,37.3546657 44.9733322,37.3093324 43.0826656,37.3093324 L42.8933323,37.3093324 C41.3213323,37.3066657 40.1866657,37.3079991 39.059999,37.5826657 L39.059999,42.8933323 C39.059999,43.9573322 38.1906657,44.8199989 37.1279991,44.8199989 C36.0639991,44.8199989 35.2013325,43.9573322 35.2013325,42.8933323 L35.2013325,39.0973324 C33.9759992,39.755999 32.9546658,40.527999 32.2093325,41.2333323 L32.2093325,47.0599988 Z M43.1293323,61.8853318 C45.0173322,61.8853318 46.5546655,60.3493318 46.5546655,58.4586652 C46.5546655,56.5679986 45.0173322,55.0306653 43.1293323,55.0306653 C41.239999,55.0306653 39.7013323,56.5679986 39.7013323,58.4586652 C39.7013323,60.3493318 41.239999,61.8853318 43.1293323,61.8853318 Z M42.7093323,33.4573325 L43.0826656,33.4573325 C45.5599989,33.4573325 47.2359988,33.5146658 49.6573321,34.5799991 L49.8706654,34.6439991 C53.277332,35.8733324 55.9919986,38.123999 57.3986652,39.8213323 C57.6853319,40.1666657 57.8413319,40.6013323 57.8413319,41.0493323 L57.8413319,47.0599988 C57.8413319,50.2599987 55.237332,52.865332 52.0346654,52.865332 L47.7813321,52.865332 C49.3839988,54.201332 50.4079987,56.2119986 50.4079987,58.4586652 C50.4079987,62.4719984 47.1413322,65.738665 43.1293323,65.738665 C39.1146657,65.738665 35.8493324,62.4719984 35.8493324,58.4586652 C35.8493324,56.2119986 36.8719991,54.201332 38.4746657,52.865332 L34.1613325,52.865332 C30.9613326,52.865332 28.3559993,50.2599987 28.3559993,47.0599988 L28.3559993,40.4466657 C28.3559993,39.967999 28.5359993,39.5053323 28.8586659,39.1493324 C30.7319992,37.0906657 33.5639992,35.3173325 36.4506658,34.3946658 C38.6706657,33.4813325 40.471999,33.4573325 42.7093323,33.4573325 L42.7093323,33.4573325 Z" id="path228" fill="#FFFFFF"></path>
                        </g>
                    </g>
                </g>
            </g>
        </g>
    </g>
</svg>