<?xml version="1.0" encoding="UTF-8"?>
<svg width="167px" height="166px" viewBox="0 0 167 166" version="1.1" xmlns="http://www.w3.org/2000/svg" xmlns:xlink="http://www.w3.org/1999/xlink">
    <!-- Generator: Sketch 53 (72520) - https://sketchapp.com -->
    <title>Group 3</title>
    <desc>Created with Sketch.</desc>
    <g id="Page-1" stroke="none" stroke-width="1" fill="none" fill-rule="evenodd">
        <g id="Artboard" transform="translate(-953.000000, -727.000000)" fill-rule="nonzero">
            <g id="logo-1" transform="translate(407.000000, 168.000000)">
                <g id="g10" transform="translate(400.000000, 400.000000) scale(-1, 1) rotate(-180.000000) translate(-400.000000, -400.000000) translate(0.000000, -0.000000)">
                    <g id="g12">
                        <g id="Group-3" transform="translate(546.737320, 75.461465)">
                            <path d="M165.535996,82.7651979 C165.535996,37.0573324 128.478663,3.26849658e-13 82.7693313,3.26849658e-13 C37.0573324,3.26849658e-13 -4.97379915e-13,37.0573324 -4.97379915e-13,82.7651979 C-4.97379915e-13,128.477197 37.0573324,165.534529 82.7693313,165.534529 C128.478663,165.534529 165.535996,128.477197 165.535996,82.7651979" id="path516" fill="#06495C"></path>
                            <path d="M47.6479988,42.8494656 C39.0773324,51.4067987 36.4706658,61.7465318 38.1853324,73.4091982 C38.3293324,74.3825315 39.3906657,75.4465314 40.303999,76.0265314 C41.6373323,76.8718647 43.2253323,77.3158647 45.3559989,78.2025314 C41.4506656,82.1185313 38.0093324,85.8318645 34.2706658,89.2171978 C31.9733325,91.2971977 31.3519992,93.2878643 31.9653325,96.4065309 C33.9333325,106.405197 37.5026657,115.587864 44.2866656,123.317197 C52.3599987,132.511863 62.7119984,137.209197 74.7519981,138.419863 C76.8239981,138.627863 78.3826647,138.675863 78.9333314,141.503863 C79.2733314,143.25053 80.8226646,144.243863 82.4973313,144.243863 C83.6866646,144.243863 84.9386645,143.743863 85.8666645,142.65453 C88.9119978,139.079863 92.765331,138.38253 96.9679976,137.541197 C105.698664,135.79053 113.414664,131.865197 119.78933,125.487864 C135.011997,110.258531 150.234663,95.030531 165.459996,79.8065313 C163.986663,37.9469324 131.442663,4.00933323 90.1746644,0.346399991 C76.0013314,14.5155996 61.8293318,28.6879993 47.6479988,42.8494656 Z" id="path518" fill="#053B4B"></path>
                            <path d="M79.9093313,101.241197 L79.6853313,102.893197 C76.4039981,102.447864 73.5413315,101.373197 71.2333316,100.185197 L71.2159982,100.175864 C69.1679983,99.0905309 67.082665,97.6758642 64.9839984,95.8425309 L64.9013317,95.7651976 L64.898665,95.7625309 L66.0773317,94.5838643 L67.5679983,95.3291976 L67.566665,95.3318643 C67.4679983,95.5305309 67.3399983,95.6958643 67.1719983,95.8425309 C65.0719984,97.6758642 62.9866651,99.0905309 60.9386651,100.175864 L60.9226651,100.185197 C58.0719985,101.655864 54.3599986,102.971864 50.0546654,103.102531 L50.0426654,103.103864 C49.9079988,103.106531 49.7626654,103.109197 49.6039988,103.109197 L49.4586654,103.109197 L49.4893321,101.442531 L49.5146654,103.109197 L49.3733321,103.109197 C49.2159988,103.109197 49.0693321,103.106531 48.9346654,103.102531 L48.9239988,103.102531 C44.6186656,102.973197 40.9066656,101.655864 38.0546657,100.185197 L38.0373324,100.175864 C35.9919991,99.0905309 33.9066658,97.6758642 31.8066659,95.8425309 L31.7239992,95.7651976 L31.7213325,95.7625309 L32.9013325,94.5838643 L32.9013325,96.2505309 L32.8986658,96.2505309 L32.8986658,94.5838643 L34.5599991,94.466531 L34.5613325,94.4838643 C34.5946658,94.9918643 35.5226658,105.503864 41.6493323,115.859864 C44.7106655,121.04253 49.0493321,126.185197 55.217332,130.117197 C61.3879985,134.04653 69.4026649,136.79453 79.9586647,137.105197 C80.8586646,137.131863 81.575998,137.871863 81.575998,138.771863 L81.575998,141.77053 C81.5773313,142.103863 81.8466646,142.37453 82.1799979,142.37453 C82.5133313,142.37453 82.7826646,142.10653 82.7839979,141.77053 L82.7839979,138.78653 C82.7839979,137.875863 83.5146646,137.133197 84.4253312,137.119863 C95.3799976,136.951863 103.654664,134.19053 109.993331,130.18653 C119.490664,124.183864 124.69733,115.277197 127.52933,107.802531 C128.942663,104.069197 129.758663,100.709197 130.215997,98.2945309 C130.44533,97.0878642 130.58533,96.1171976 130.667997,95.4545309 C130.70933,95.1238643 130.735997,94.870531 130.751997,94.702531 L130.76933,94.5158643 L130.77333,94.4651976 L132.435997,94.5838643 L133.359997,95.9705309 L133.355997,95.9731976 L132.431997,94.586531 L133.527997,95.8425309 C131.426663,97.6758642 129.34133,99.0905309 127.29733,100.175864 L127.278663,100.185197 C124.426664,101.655864 120.715997,102.973197 116.40933,103.102531 L116.39733,103.103864 C116.262664,103.106531 116.11733,103.109197 115.959997,103.109197 L115.814664,103.109197 L115.846664,101.442531 L115.871997,103.109197 L115.72933,103.109197 C115.570664,103.109197 115.423997,103.106531 115.28933,103.102531 L115.278664,103.102531 C110.974664,102.971864 107.261331,101.655864 104.410664,100.185197 L104.394664,100.175864 C102.346664,99.0905309 100.262664,97.6758642 98.1639975,95.8425309 L99.2599975,94.586531 L98.6413309,96.1345309 L98.6346642,96.1318643 L99.2533309,94.5838643 L100.743997,95.3291976 L100.742664,95.3318643 C100.643997,95.5305309 100.515997,95.6958643 100.347997,95.8425309 C98.2493309,97.6758642 96.1639976,99.0905309 94.1159976,100.175864 L94.0999976,100.185197 C91.5519977,101.499864 88.3213311,102.679864 84.5999979,103.015864 L84.4079979,103.022531 L79.867998,102.907864 L79.6853313,102.893197 L79.9093313,101.241197 L79.951998,99.5758642 L84.4919979,99.6905308 L84.4506646,101.355864 L84.2999979,99.6958642 C87.4919978,99.4091975 90.3199977,98.3851975 92.5706644,97.2225309 L93.3359977,98.7038642 L92.5546644,97.2318642 C94.3719976,96.2678643 96.2386643,95.0051976 98.1559975,93.3318643 L99.2519975,94.586531 L97.7613309,93.8411977 L97.7626642,93.838531 C98.1493309,93.0651977 99.0693309,92.7158643 99.8719975,93.0371977 L99.8786642,93.0398643 C100.050664,93.1078643 100.217331,93.210531 100.355997,93.3318643 C102.273331,95.0051976 104.139997,96.2678643 105.955997,97.2318642 L105.175997,98.7038642 L105.939997,97.2225309 C108.463997,98.5278642 111.706664,99.6625308 115.378664,99.7705308 L115.367997,99.7705308 C115.498664,99.7745308 115.619997,99.7758642 115.72933,99.7758642 L115.819997,99.7758642 L115.875997,99.7758642 L115.959997,99.7758642 C116.06533,99.7758642 116.186664,99.7731975 116.32133,99.7705308 L116.30933,99.7705308 C119.98533,99.6611975 123.222664,98.5278642 125.750664,97.2225309 L126.514664,98.7038642 L125.73333,97.2318642 C127.547997,96.2678643 129.418663,95.0051976 131.335997,93.330531 L131.506663,93.1998643 L131.510663,93.1971977 C132.04133,92.8438643 132.722663,92.822531 133.27333,93.1438643 C133.82533,93.4638643 134.143997,94.066531 134.098663,94.702531 C134.08133,94.8438643 133.303997,105.935864 126.715997,117.271864 C123.418664,122.93453 118.64533,128.659863 111.774664,133.003863 C104.907997,137.35053 95.9639976,140.283863 84.4746646,140.451863 L84.4506646,138.78653 L86.1159978,138.78653 L86.1159978,141.77053 C86.1159978,143.945196 84.3546646,145.707863 82.1799979,145.707863 C80.0066647,145.707863 78.243998,143.94653 78.2426647,141.77053 L78.2426647,138.771863 L79.9093313,138.771863 L79.8613313,140.437196 C68.6013316,140.113196 59.8359985,137.099863 53.1079987,132.723863 C43.0079989,126.157197 37.5519991,116.631864 34.6199991,108.813197 C31.6853325,100.982531 31.2453326,94.8078643 31.2346659,94.702531 C31.2026659,94.2398643 31.3626659,93.7878643 31.6786659,93.4478643 C31.9946659,93.1078643 32.4333325,92.9171977 32.8986658,92.9171977 L32.9013325,92.9171977 C33.3399992,92.9171977 33.7679992,93.0958643 34.0786658,93.4051977 L34.0813325,93.4078643 L32.9026658,94.586531 L33.9999991,93.3318643 C35.9159991,95.0051976 37.7853324,96.2678643 39.599999,97.2318642 L38.8186657,98.7038642 L39.5826657,97.2225309 C42.1106656,98.5278642 45.3493322,99.6625308 49.0239988,99.7705308 L49.0133321,99.7705308 C49.1439988,99.7745308 49.2653321,99.7758642 49.3733321,99.7758642 L49.4626654,99.7758642 L49.5199988,99.7758642 L49.6039988,99.7758642 C49.7106654,99.7758642 49.8319988,99.7731975 49.9666654,99.7705308 L49.9546654,99.7705308 C53.629332,99.6625308 56.8679986,98.5278642 59.3933318,97.2225309 L60.1586652,98.7038642 L59.3773318,97.2318642 C61.1946651,96.2678643 63.0626651,95.0051976 64.9799984,93.330531 L66.0759983,94.586531 L64.5853317,93.8411977 L64.5866651,93.838531 C64.8253317,93.3598643 65.282665,93.0251977 65.810665,92.938531 C66.338665,92.8531977 66.8773317,93.0278643 67.2559983,93.4051977 L67.258665,93.4078643 L66.0799983,94.586531 L67.1773317,93.3318643 C69.0933316,95.0051976 70.9613316,96.2678643 72.7773315,97.2318642 L71.9973315,98.7038642 L72.7599982,97.2225309 C74.7959981,98.2718642 77.3079981,99.2078642 80.1333313,99.5905308 L79.9093313,101.241197 L79.951998,99.5758642 L79.9093313,101.241197" id="path520" fill="#FFFFFF"></path>
                            <path d="M79.9093313,101.241197 L79.9093313,42.5786656 C79.9093313,34.7067991 84.0519979,29.8171993 90.7173311,29.8171993 C98.7906642,29.8171993 101.934664,35.6770658 102.469331,38.775999 C102.682664,40.010399 101.853331,41.1854656 100.618664,41.398399 C99.3853308,41.611999 98.2093309,40.7838656 97.9959976,39.5478657 C97.9586642,39.3358657 97.0279976,34.3573325 90.7173311,34.3573325 C85.5373312,34.3573325 84.4506646,38.8281324 84.4506646,42.5786656 L84.4506646,101.355864" id="path522" fill="#FFFFFF"></path>
                            <path d="M55.5173319,43.5453322 C49.1053321,46.7999988 45.4519989,51.2707987 43.3133323,55.8863986 C41.1826656,60.4998652 40.6213323,65.283865 40.6226657,68.9625316 C40.6226657,70.8798649 40.7733323,72.4945315 40.9226656,73.6171982 C40.9973323,74.1785315 41.071999,74.6185315 41.1253323,74.9105315 C41.1533323,75.0571981 41.1746656,75.1678648 41.1906656,75.2385315 L41.2066656,75.3145315 L41.2093323,75.3291981 L39.5853323,75.7038648 L40.119999,74.1251981 C43.9279989,75.4145314 46.9119988,76.9078647 49.2173321,78.3585314 C50.9093321,79.4225313 52.2346654,80.4625313 53.2479987,81.3785313 L53.2439987,81.3745313 C53.3866653,81.5025313 53.517332,81.625198 53.6359987,81.7358646 C55.3066653,83.3145313 56.0093319,84.4518646 56.0786653,84.5678646 L54.649332,85.4251979 L53.225332,84.5585312 C53.2999987,84.4345312 54.117332,83.1318646 56.0866653,81.3718646 C57.1173319,80.4558647 58.4573319,79.4145313 60.1746652,78.3518647 C62.4799984,76.9265314 65.4559984,75.4598648 69.2399983,74.2025315 L69.7653316,75.7851981 L68.142665,75.4025314 L68.146665,75.3865314 C68.2013316,75.1478648 68.7639983,72.5385315 68.7626649,68.8451983 C68.7626649,66.8211983 68.594665,64.4718651 68.090665,62.0091984 C67.4253316,58.7558652 66.178665,55.3103986 63.9746651,52.102532 C61.7666651,48.8931988 58.6079985,45.9035989 54.005332,43.5411989 C53.185332,43.1213323 52.861332,42.1171989 53.281332,41.2973323 C53.7026653,40.4786657 54.7066653,40.1546657 55.5253319,40.5745323 C60.6013318,43.1745323 64.2199984,46.5677322 66.7213317,50.2145321 C69.2266649,53.8614653 70.6213316,57.7426652 71.3559982,61.3411985 C71.9133315,64.0678651 72.0959982,66.6371983 72.0959982,68.8451983 C72.0946649,73.1425315 71.4066649,76.0785314 71.3879982,76.1665314 C71.2546649,76.7305314 70.8399982,77.1838647 70.2906649,77.3665314 C66.746665,78.5438647 64.0119984,79.8985313 61.9279985,81.1865313 C60.3799985,82.1451979 59.1973319,83.0665313 58.3053319,83.8598646 C57.4573319,84.6185312 56.8799986,85.2571979 56.5239986,85.6905312 C56.3466653,85.9078645 56.2239986,86.0731978 56.1519986,86.1771978 L56.0773319,86.2851978 L56.0666653,86.3011978 L55.4759986,85.9291979 L56.0733319,86.2918645 L56.0666653,86.3011978 L55.4759986,85.9291979 L56.0733319,86.2918645 C55.7693319,86.7905312 55.229332,87.0931978 54.6439986,87.0918645 C54.0599986,87.0905312 53.521332,86.7838645 53.2199987,86.2825312 L53.8759987,85.8891979 L53.2266653,86.2931978 L53.2199987,86.2825312 L53.8759987,85.8891979 L53.2266653,86.2931978 C53.221332,86.2851978 52.6866653,85.4251979 51.3466654,84.1598646 L51.0186654,83.8558646 L51.0133321,83.8518646 C50.1399987,83.0625313 48.9706654,82.1411979 47.4426655,81.1798646 C45.3599989,79.8705313 42.6199989,78.4905314 39.0506657,77.2825314 C38.5026657,77.0971981 38.0906657,76.6425314 37.9613324,76.0785314 C37.9426657,75.9905314 37.2906657,73.1465315 37.2893324,68.9625316 C37.2906657,64.9545317 37.8866657,59.6998652 40.2866657,54.4906653 C42.6786656,49.2838654 46.9293322,44.1463989 54.0119986,40.5702657 C54.833332,40.1557323 55.8359986,40.4838657 56.2519986,41.305199 C56.6679986,42.1265323 56.3386653,43.1291989 55.5186653,43.5453322" id="path524" fill="#FFFFFF"></path>
                            <path d="M48.1439988,63.0705318 L61.2426651,63.0705318 C62.1639984,63.0705318 62.9093318,63.8171984 62.9093318,64.7371984 C62.9093318,65.6585317 62.1639984,66.403865 61.2426651,66.403865 L48.1439988,66.403865 C47.2239988,66.403865 46.4773322,65.6585317 46.4773322,64.7371984 C46.4773322,63.8171984 47.2239988,63.0705318 48.1439988,63.0705318" id="path526" fill="#FFFFFF"></path>
                            <path d="M53.0266653,71.2865316 L53.0266653,58.1878652 C53.0266653,57.2677319 53.773332,56.5213319 54.693332,56.5213319 C55.6133319,56.5213319 56.3599986,57.2677319 56.3599986,58.1878652 L56.3599986,71.2865316 C56.3599986,72.2065315 55.6133319,72.9531982 54.693332,72.9531982 C53.773332,72.9531982 53.0266653,72.2065315 53.0266653,71.2865316" id="path528" fill="#FFFFFF"></path>
                        </g>
                    </g>
                </g>
            </g>
        </g>
    </g>
</svg>